<svg xmlns="http://www.w3.org/2000/svg" viewBox="0 0 900 480" role="img">
<title>Family Scaling Profile</title>
<style>
        text { font-family: system-ui, -apple-system, BlinkMacSystemFont, "Segoe UI", sans-serif; fill: #111827; }
        .title { font-size: 16px; font-weight: 750; }
        .subtitle { font-size: 11px; fill: #6B7280; }
        .axis { font-size: 11px; }
        .small { font-size: 10px; }
        .tiny { font-size: 8.5px; }
        .value { font-size: 10px; font-weight: 650; }
        .cell-label { font-size: 10px; font-weight: 750; fill: #ffffff; }
        .muted { font-size: 10px; fill: #6B7280; }
        .grid { stroke: #E5E7EB; stroke-width: 1; }
        .axis-line { stroke: #374151; stroke-width: 1; }
        .outline { stroke: #ffffff; stroke-width: 1; }
        .panel { stroke: #E5E7EB; stroke-width: 1; }
    </style>

<rect x="0" y="0" width="900" height="480" fill="#F8FAFC"/>
<rect x="28.0" y="40.0" width="844.0" height="380.0" fill="#FFFFFF" class="panel" />
<text x="450.0" y="24.0" class="title" text-anchor="middle" >Family Scaling Profile</text>
<text x="450.0" y="44.0" class="subtitle" text-anchor="middle" >One small panel per benchmark with comparable scores; open circles mark missing slots.</text>
<text x="78.0" y="90.0" class="value" text-anchor="end" >IslamTrust</text>
<line x1="96.0" y1="198.0" x2="620.0" y2="198.0" class="grid" />
<text x="86.0" y="202.0" class="tiny" text-anchor="end" >0.0</text>
<line x1="96.0" y1="137.0" x2="620.0" y2="137.0" class="grid" />
<text x="86.0" y="141.0" class="tiny" text-anchor="end" >0.5</text>
<line x1="96.0" y1="76.0" x2="620.0" y2="76.0" class="grid" />
<text x="86.0" y="80.0" class="tiny" text-anchor="end" >1.0</text>
<line x1="96.0" y1="76.0" x2="96.0" y2="198.0" class="axis-line" />
<line x1="96.0" y1="198.0" x2="620.0" y2="198.0" class="axis-line" />
<text x="176.0" y="210.0" class="tiny" text-anchor="middle" >S</text>
<text x="346.0" y="210.0" class="tiny" text-anchor="middle" >M</text>
<text x="516.0" y="210.0" class="tiny" text-anchor="middle" >L</text>
<path d="M176.0,111.2 L346.0,104.9 L516.0,101.5" fill="none" stroke="#2563EB" stroke-width="2.2" stroke-linecap="round" stroke-linejoin="round"/>
<circle cx="176.0" cy="111.2" r="4.0" fill="#2563EB" stroke="#ffffff" stroke-width="1.5" />
<circle cx="346.0" cy="104.9" r="4.0" fill="#2563EB" stroke="#ffffff" stroke-width="1.5" />
<circle cx="516.0" cy="101.5" r="4.0" fill="#2563EB" stroke="#ffffff" stroke-width="1.5" />
<path d="M176.0,98.8 L346.0,98.5 L516.0,96.6" fill="none" stroke="#F97316" stroke-width="2.2" stroke-linecap="round" stroke-linejoin="round"/>
<circle cx="176.0" cy="98.8" r="4.0" fill="#F97316" stroke="#ffffff" stroke-width="1.5" />
<circle cx="346.0" cy="98.5" r="4.0" fill="#F97316" stroke="#ffffff" stroke-width="1.5" />
<circle cx="516.0" cy="96.6" r="4.0" fill="#F97316" stroke="#ffffff" stroke-width="1.5" />
<path d="M176.0,138.8 L346.0,127.4 L516.0,108.8" fill="none" stroke="#059669" stroke-width="2.2" stroke-linecap="round" stroke-linejoin="round"/>
<circle cx="176.0" cy="138.8" r="4.0" fill="#059669" stroke="#ffffff" stroke-width="1.5" />
<circle cx="346.0" cy="127.4" r="4.0" fill="#059669" stroke="#ffffff" stroke-width="1.5" />
<circle cx="516.0" cy="108.8" r="4.0" fill="#059669" stroke="#ffffff" stroke-width="1.5" />
<path d="M176.0,116.4 L346.0,107.0 L516.0,104.2" fill="none" stroke="#DC2626" stroke-width="2.2" stroke-linecap="round" stroke-linejoin="round"/>
<circle cx="176.0" cy="116.4" r="4.0" fill="#DC2626" stroke="#ffffff" stroke-width="1.5" />
<circle cx="346.0" cy="107.0" r="4.0" fill="#DC2626" stroke="#ffffff" stroke-width="1.5" />
<circle cx="516.0" cy="104.2" r="4.0" fill="#DC2626" stroke="#ffffff" stroke-width="1.5" />
<circle cx="176.0" cy="196.0" r="4.0" fill="#ffffff" stroke="#7C3AED" stroke-width="1.5" />
<circle cx="346.0" cy="196.0" r="4.0" fill="#ffffff" stroke="#7C3AED" stroke-width="1.5" />
<circle cx="516.0" cy="196.0" r="4.0" fill="#ffffff" stroke="#7C3AED" stroke-width="1.5" />
<circle cx="176.0" cy="196.0" r="4.0" fill="#ffffff" stroke="#7C3AED" stroke-width="1.5" />
<circle cx="346.0" cy="196.0" r="4.0" fill="#ffffff" stroke="#7C3AED" stroke-width="1.5" />
<circle cx="516.0" cy="196.0" r="4.0" fill="#ffffff" stroke="#7C3AED" stroke-width="1.5" />
<text x="78.0" y="230.0" class="value" text-anchor="end" >BibleQA</text>
<line x1="96.0" y1="338.0" x2="620.0" y2="338.0" class="grid" />
<text x="86.0" y="342.0" class="tiny" text-anchor="end" >0.0</text>
<line x1="96.0" y1="277.0" x2="620.0" y2="277.0" class="grid" />
<text x="86.0" y="281.0" class="tiny" text-anchor="end" >0.5</text>
<line x1="96.0" y1="216.0" x2="620.0" y2="216.0" class="grid" />
<text x="86.0" y="220.0" class="tiny" text-anchor="end" >1.0</text>
<line x1="96.0" y1="216.0" x2="96.0" y2="338.0" class="axis-line" />
<line x1="96.0" y1="338.0" x2="620.0" y2="338.0" class="axis-line" />
<text x="176.0" y="350.0" class="tiny" text-anchor="middle" >S</text>
<text x="346.0" y="350.0" class="tiny" text-anchor="middle" >M</text>
<text x="516.0" y="350.0" class="tiny" text-anchor="middle" >L</text>
<path d="M176.0,224.8 L346.0,225.0 L516.0,222.6" fill="none" stroke="#2563EB" stroke-width="2.2" stroke-linecap="round" stroke-linejoin="round"/>
<circle cx="176.0" cy="224.8" r="4.0" fill="#2563EB" stroke="#ffffff" stroke-width="1.5" />
<circle cx="346.0" cy="225.0" r="4.0" fill="#2563EB" stroke="#ffffff" stroke-width="1.5" />
<circle cx="516.0" cy="222.6" r="4.0" fill="#2563EB" stroke="#ffffff" stroke-width="1.5" />
<path d="M176.0,225.6 L346.0,227.8 L516.0,221.9" fill="none" stroke="#F97316" stroke-width="2.2" stroke-linecap="round" stroke-linejoin="round"/>
<circle cx="176.0" cy="225.6" r="4.0" fill="#F97316" stroke="#ffffff" stroke-width="1.5" />
<circle cx="346.0" cy="227.8" r="4.0" fill="#F97316" stroke="#ffffff" stroke-width="1.5" />
<circle cx="516.0" cy="221.9" r="4.0" fill="#F97316" stroke="#ffffff" stroke-width="1.5" />
<path d="M176.0,241.2 L346.0,225.2 L516.0,224.7" fill="none" stroke="#059669" stroke-width="2.2" stroke-linecap="round" stroke-linejoin="round"/>
<circle cx="176.0" cy="241.2" r="4.0" fill="#059669" stroke="#ffffff" stroke-width="1.5" />
<circle cx="346.0" cy="225.2" r="4.0" fill="#059669" stroke="#ffffff" stroke-width="1.5" />
<circle cx="516.0" cy="224.7" r="4.0" fill="#059669" stroke="#ffffff" stroke-width="1.5" />
<path d="M176.0,238.3 L346.0,228.3 L516.0,229.9" fill="none" stroke="#DC2626" stroke-width="2.2" stroke-linecap="round" stroke-linejoin="round"/>
<circle cx="176.0" cy="238.3" r="4.0" fill="#DC2626" stroke="#ffffff" stroke-width="1.5" />
<circle cx="346.0" cy="228.3" r="4.0" fill="#DC2626" stroke="#ffffff" stroke-width="1.5" />
<circle cx="516.0" cy="229.9" r="4.0" fill="#DC2626" stroke="#ffffff" stroke-width="1.5" />
<path d="M176.0,223.3 L346.0,224.5 L516.0,224.0" fill="none" stroke="#7C3AED" stroke-width="2.2" stroke-linecap="round" stroke-linejoin="round"/>
<circle cx="176.0" cy="223.3" r="4.0" fill="#7C3AED" stroke="#ffffff" stroke-width="1.5" />
<circle cx="346.0" cy="224.5" r="4.0" fill="#7C3AED" stroke="#ffffff" stroke-width="1.5" />
<circle cx="516.0" cy="224.0" r="4.0" fill="#7C3AED" stroke="#ffffff" stroke-width="1.5" />
<text x="358.0" y="374.0" class="axis" text-anchor="middle" >Size slot</text>
<text x="46.0" y="220.0" class="axis" text-anchor="middle" transform="rotate(-90 46 220)">Accuracy</text>
<rect x="635.0" y="75.0" width="15.0" height="15.0" fill="#2563EB" />
<text x="660.0" y="88.0" class="small" text-anchor="start" >Qwen</text>
<rect x="635.0" y="99.0" width="15.0" height="15.0" fill="#F97316" />
<text x="660.0" y="112.0" class="small" text-anchor="start" >DeepSeek</text>
<rect x="635.0" y="123.0" width="15.0" height="15.0" fill="#059669" />
<text x="660.0" y="136.0" class="small" text-anchor="start" >Llama</text>
<rect x="635.0" y="147.0" width="15.0" height="15.0" fill="#DC2626" />
<text x="660.0" y="160.0" class="small" text-anchor="start" >Gemma</text>
<rect x="635.0" y="171.0" width="15.0" height="15.0" fill="#7C3AED" />
<text x="660.0" y="184.0" class="small" text-anchor="start" >MiniMax</text>
<rect x="620.0" y="232.0" width="222.0" height="48.0" fill="#F9FAFB" class="panel" />
<text x="636.0" y="256.0" class="value" text-anchor="start" >Panels: 2</text>
<text x="636.0" y="274.0" class="small" text-anchor="start" >Blocked benchmarks: 2</text>
</svg>
